<svg id="visual" viewBox="0 0 900 600" width="900" height="600" xmlns="http://www.w3.org/2000/svg" xmlns:xlink="http://www.w3.org/1999/xlink" version="1.1"><rect x="0" y="0" width="900" height="600" fill="#00b9ff"></rect><path d="M320 0L368 86L229 171L329 257L365 343L338 429L314 514L302 600L0 600L0 514L0 429L0 343L0 257L0 171L0 86L0 0Z" fill="#4facf7"></path><path d="M219 0L247 86L265 171L254 257L235 343L244 429L200 514L277 600L0 600L0 514L0 429L0 343L0 257L0 171L0 86L0 0Z" fill="#8b81d8"></path><path d="M187 0L169 86L210 171L193 257L150 343L195 429L244 514L156 600L0 600L0 514L0 429L0 343L0 257L0 171L0 86L0 0Z" fill="#ad509c"></path><path d="M142 0L109 86L101 171L104 257L152 343L136 429L126 514L105 600L0 600L0 514L0 429L0 343L0 257L0 171L0 86L0 0Z" fill="#ab2051"></path><path d="M108 0L84 86L70 171L43 257L93 343L96 429L78 514L80 600L0 600L0 514L0 429L0 343L0 257L0 171L0 86L0 0Z" fill="#871400"></path></svg>