<svg id="visual" viewBox="0 0 900 600" width="900" height="600" xmlns="http://www.w3.org/2000/svg" xmlns:xlink="http://www.w3.org/1999/xlink" version="1.1"><rect x="0" y="0" width="900" height="600" fill="#DAA520"></rect><path d="M0 205L82 206L164 226L245 187L327 196L409 206L491 190L573 230L655 198L736 211L818 207L900 195L900 0L818 0L736 0L655 0L573 0L491 0L409 0L327 0L245 0L164 0L82 0L0 0Z" fill="#fcaf3c"></path><path d="M0 169L82 200L164 175L245 208L327 201L409 170L491 219L573 155L655 219L736 191L818 208L900 189L900 0L818 0L736 0L655 0L573 0L491 0L409 0L327 0L245 0L164 0L82 0L0 0Z" fill="#e4ac2b"></path><path d="M0 188L82 187L164 150L245 178L327 145L409 172L491 146L573 172L655 139L736 146L818 174L900 188L900 0L818 0L736 0L655 0L573 0L491 0L409 0L327 0L245 0L164 0L82 0L0 0Z" fill="#cba81b"></path><path d="M0 120L82 125L164 126L245 141L327 167L409 125L491 135L573 163L655 161L736 152L818 160L900 140L900 0L818 0L736 0L655 0L573 0L491 0L409 0L327 0L245 0L164 0L82 0L0 0Z" fill="#b1a40b"></path><path d="M0 115L82 125L164 99L245 111L327 107L409 138L491 129L573 97L655 122L736 107L818 112L900 107L900 0L818 0L736 0L655 0L573 0L491 0L409 0L327 0L245 0L164 0L82 0L0 0Z" fill="#989f00"></path><path d="M0 95L82 112L164 117L245 83L327 96L409 88L491 81L573 80L655 85L736 80L818 84L900 90L900 0L818 0L736 0L655 0L573 0L491 0L409 0L327 0L245 0L164 0L82 0L0 0Z" fill="#7e9a00"></path><path d="M0 88L82 61L164 66L245 70L327 71L409 68L491 70L573 85L655 84L736 87L818 83L900 82L900 0L818 0L736 0L655 0L573 0L491 0L409 0L327 0L245 0L164 0L82 0L0 0Z" fill="#629400"></path><path d="M0 49L82 50L164 38L245 42L327 46L409 57L491 53L573 50L655 66L736 42L818 44L900 47L900 0L818 0L736 0L655 0L573 0L491 0L409 0L327 0L245 0L164 0L82 0L0 0Z" fill="#418e00"></path><path d="M0 27L82 22L164 22L245 39L327 18L409 21L491 23L573 28L655 35L736 19L818 29L900 20L900 0L818 0L736 0L655 0L573 0L491 0L409 0L327 0L245 0L164 0L82 0L0 0Z" fill="#088700"></path></svg>