<svg id="svg" version="1.1" xmlns="http://www.w3.org/2000/svg" xmlns:xlink="http://www.w3.org/1999/xlink" width="100%" height="100%" viewBox="0, 0, 400,400"><g id="svgg"><path id="path0" d="M303.509 56.300 C 303.409 107.845,303.344 112.724,302.733 114.069 C 301.046 117.787,298.574 117.685,291.180 113.589 C 279.730 107.246,270.442 103.897,259.006 101.988 C 250.291 100.533,249.970 100.245,244.058 88.564 C 225.841 52.571,197.952 33.396,155.000 27.334 C 146.443 26.126,114.549 26.250,106.000 27.524 C 61.820 34.108,28.437 57.006,8.792 94.200 C 3.878 103.503,2.418 106.447,1.962 107.970 C 1.685 108.893,1.131 109.823,0.730 110.038 C 0.026 110.414,-0.000 115.493,-0.000 255.214 L 0.000 400.000 51.800 400.000 L 103.600 400.000 103.602 286.100 C 103.603 158.296,103.573 159.696,106.507 150.817 C 113.301 130.250,139.212 129.995,146.581 150.423 C 149.635 158.890,149.600 157.301,149.600 286.008 L 149.600 400.000 207.600 400.000 L 265.600 400.000 265.602 326.500 C 265.605 236.435,265.803 231.127,269.431 223.849 C 275.018 212.640,292.461 212.606,299.016 223.791 C 303.532 231.498,303.596 232.904,303.598 324.500 L 303.600 400.000 351.800 400.000 L 400.000 400.000 400.000 200.000 L 400.000 0.000 351.809 0.000 L 303.619 0.000 303.509 56.300 " stroke="none" fill="#04bbfc" fill-rule="evenodd"></path><path id="path1" d="M0.000 55.214 C 0.000 108.529,0.025 110.415,0.730 110.038 C 1.131 109.823,1.685 108.893,1.962 107.970 C 2.418 106.447,3.878 103.503,8.792 94.200 C 28.437 57.006,61.820 34.108,106.000 27.524 C 114.549 26.250,146.443 26.126,155.000 27.334 C 197.952 33.396,225.841 52.571,244.058 88.564 C 249.970 100.245,250.291 100.533,259.006 101.988 C 270.442 103.897,279.730 107.246,291.180 113.589 C 298.574 117.685,301.046 117.787,302.733 114.069 C 303.344 112.724,303.409 107.845,303.509 56.300 L 303.619 -0.000 151.809 -0.000 L 0.000 0.000 0.000 55.214 M120.400 136.172 C 113.840 137.998,109.085 143.010,106.507 150.817 C 103.573 159.696,103.603 158.296,103.602 286.100 L 103.600 400.000 126.600 400.000 L 149.600 400.000 149.600 286.008 C 149.600 157.301,149.635 158.890,146.581 150.423 C 142.461 139.002,131.558 133.068,120.400 136.172 M279.098 216.034 C 275.142 216.967,271.324 220.053,269.431 223.849 C 265.803 231.124,265.605 236.432,265.602 326.500 L 265.600 400.000 284.600 400.000 L 303.600 400.000 303.598 324.500 C 303.596 232.904,303.532 231.498,299.016 223.791 C 295.112 217.129,287.323 214.096,279.098 216.034 " stroke="none" fill="#dba4dc" fill-rule="evenodd"></path></g></svg>