<svg id="visual" viewBox="0 0 900 600" width="900" height="600" xmlns="http://www.w3.org/2000/svg" xmlns:xlink="http://www.w3.org/1999/xlink" version="1.1"><path d="M0 193L82 169L164 97L245 247L327 169L409 163L491 259L573 103L655 61L736 241L818 163L900 121L900 0L818 0L736 0L655 0L573 0L491 0L409 0L327 0L245 0L164 0L82 0L0 0Z" fill="#dda0dd"></path><path d="M0 307L82 265L164 277L245 361L327 331L409 277L491 337L573 223L655 187L736 373L818 301L900 205L900 119L818 161L736 239L655 59L573 101L491 257L409 161L327 167L245 245L164 95L82 167L0 191Z" fill="#969fe4"></path><path d="M0 505L82 385L164 517L245 463L327 457L409 499L491 445L573 433L655 385L736 463L818 511L900 439L900 203L818 299L736 371L655 185L573 221L491 335L409 275L327 329L245 359L164 275L82 263L0 305Z" fill="#3d9cd1"></path><path d="M0 565L82 499L164 565L245 529L327 523L409 547L491 505L573 547L655 505L736 565L818 553L900 499L900 437L818 509L736 461L655 383L573 431L491 443L409 497L327 455L245 461L164 515L82 383L0 503Z" fill="#0092a7"></path><path d="M0 601L82 601L164 601L245 601L327 601L409 601L491 601L573 601L655 601L736 601L818 601L900 601L900 497L818 551L736 563L655 503L573 545L491 503L409 545L327 521L245 527L164 563L82 497L0 563Z" fill="#038373"></path></svg>