<svg id="svg" version="1.1" xmlns="http://www.w3.org/2000/svg" xmlns:xlink="http://www.w3.org/1999/xlink" style="display: block; transform: scale(-1,1)" width="100%" height="100%" viewBox="0, 0, 400,772.9729729729729">
  <g id="svgg">
    <path id="path1" d="M302.200 17.757 C 299.806 18.510,299.187 18.888,204.437 77.554 C 175.661 95.372,174.766 96.005,159.378 109.461 C 70.801 186.917,29.999 279.468,18.420 429.200 C 13.846 488.356,13.390 528.957,15.197 716.400 C 15.578 755.870,15.536 755.265,18.025 757.359 C 20.300 759.274,13.949 759.209,189.050 759.102 L 355.800 759.000 357.453 758.053 C 358.407 757.506,359.506 756.407,360.053 755.453 L 361.000 753.800 361.105 587.800 C 361.217 411.936,361.288 418.717,359.289 416.342 C 356.976 413.592,364.349 413.821,271.200 413.600 L 187.000 413.400 185.007 412.400 C 181.604 410.693,181.394 409.999,181.437 400.600 C 181.502 386.194,183.745 367.689,187.447 351.000 C 201.196 289.028,235.260 241.080,301.000 191.164 C 312.227 182.640,317.509 178.824,347.200 157.788 C 382.784 132.576,380.742 134.224,381.107 130.422 C 381.405 127.329,381.292 127.148,345.492 73.200 C 304.810 11.894,307.970 15.941,302.200 17.757" stroke="none" fill="#ffffff"></path>
  </g>
</svg>